#!OML:ASF F:\VICON\USERDATA\INSTALL\rory3\rory3.ASF
:FULLY-SPECIFIED
:DEGREES
18
root 0.8532004857847533 17.721810862755937 -15.393888330229684 0.6113183735702541 -7.219714472190406 -8.965483122967475
lfemur -25.77368816269651 -5.691877617218306 -7.084758304812089
ltibia 12.623810470481157
lfoot -6.506939132682452 13.109880335571667
ltoes -0.467492432958148
rfemur 11.399383798238333 8.370176087144014 35.485685581140245
rtibia 23.550307312614457
rfoot -17.988289903091015 -5.057512377338886
rtoes -6.620394004244959
lowerback 8.691004969335857 2.9330265492502834 9.205021773455291
upperback -0.2961010824946338 4.959955254815561 2.3464130004333574
thorax -4.627068061223091 2.252445786276577 -3.285372793834648
lowerneck -16.812697477787427 -2.842611581485054 -1.278770204126722
upperneck 21.77109099264765 -3.6821302754967338 0.25725344875684575
head 9.702821473988417 -1.783680136979231 -0.18316458535171357
lclavicle -1.9532406450981722e-15 9.067692723530645e-16
lhumerus -38.73858630070016 6.998758103680249 81.50190922320465
lradius 21.81500737377341
lwrist 2.181877801554387
lhand -26.959001185364382 19.65451035906941
lfingers 7.12502
lthumb -0.38045118546129103 49.633910334165165
rclavicle -1.9532406450981722e-15 9.067692723530645e-16
rhumerus -21.923517347229797 -8.062566419416376 -82.99508682301622
rradius 29.725085087254566
rwrist 1.1132425232620928
rhand -18.3558928462036 25.061889232939414
rfingers 7.12502
rthumb 7.92684715323144 -4.769470660704259
19
root 0.9375104698111061 17.818605433684287 -14.527988716893104 0.022008424447381714 -7.2347544258143035 -7.496886733514476
lfemur -24.746088857474536 -3.71945517898686 -10.409513518293856
ltibia 15.30130899622429
lfoot 0.23016691159080604 5.892660538807225
ltoes -1.708382635593522
rfemur 12.902182781693742 7.801058114359773 33.329588753352105
rtibia 26.20290580675723
rfoot -14.400793648676537 -2.7755366280298945
rtoes -10.65697757961516
lowerback 8.540246855089347 2.9138266637801085 7.867064839450532
upperback -0.20208064196019188 4.766205999680808 2.1079354099589587
thorax -4.547449874083488 2.1937262746363877 -2.767044933570514
lowerneck -16.94959562751141 -2.8543511694818737 -1.4385578115415902
upperneck 22.056087608310786 -3.615011714522046 0.09139802747715031
head 9.828907516377091 -1.783740133640304 -0.2104246855617428
lclavicle -1.9532406683098537e-15 9.067691698370563e-16
lhumerus -39.17258561642481 8.868084557357797 80.7498134767226
lradius 20.294110612158274
lwrist 1.1092113278760438
lhand -27.20779988368733 18.48601356273374
lfingers 7.12502
lthumb -0.6207718835770943 48.46481353897279
rclavicle -1.9532406683098537e-15 9.067691698370563e-16
rhumerus -22.889614665593175 -9.356964269179368 -82.56978827452367
rradius 29.250086535557877
rwrist 1.5441814525240787
rhand -19.79068051460789 23.016497377356664
rfingers 7.12502
rthumb 6.541909487886906 -6.862472300716443
20
root 0.9908761937594666 17.918499830747738 -13.649489109183074 -1.037329615179502 -5.646659322748793 -4.494634114558265
lfemur -22.277190526740355 -3.7424850906960083 -14.944306989731466
ltibia 16.290208451726564
lfoot 3.032019602933592 0.12930668666174516
ltoes -3.0354207134481928
rfemur 11.890783465838844 6.226153724217706 29.764293998882003
rtibia 32.99190195270277
rfoot -7.956000377470873 -1.7821084785123595
rtoes -9.703399097331491
lowerback 8.386508778117612 2.6323183430139583 4.809441846146558
upperback -0.31018469910425933 4.050038752971878 1.373542830101535
thorax -4.793894262686292 1.8981187331521456 -1.7586790962573415
lowerneck -16.252005055944924 -3.0290950368110257 -1.45551755759426
upperneck 22.235285480334767 -3.8949857118655067 0.19302229251415648
head 9.76651947462414 -1.9058433383668243 -0.19979703635473708
lclavicle -1.953240616762468e-15 9.067692386692542e-16
lhumerus -39.319885384181084 10.017582376631207 79.69281945460912
lradius 18.120415240521236
lwrist -0.6389309252193502
lhand -27.039500764202796 18.007514874632243
lfingers 7.12502
lthumb -0.4582557639722059 47.986814849295314
rclavicle -1.953240616762468e-15 9.067692386692542e-16
rhumerus -24.533710102008907 -12.342309309962666 -81.76359102600568
rradius 27.66969135429171
rwrist 2.5871188611760525
rhand -20.067978131313016 22.673998741130454
rfingers 7.12502
rthumb 6.274181872346501 -7.21312090013559
21
root 0.929480553698063 17.882466607870068 -1.4717359313799 -2.0100612487910956 -5.0499676396477575 -2.9009656589504744
lfemur -18.62773444947941 -2.6678994233308155 -18.7613529453105
ltibia 24.385415788051528
lfoot -3.5011158141665923 -2.8632467395119674
ltoes -3.368217273649202
rfemur 5.252244419057167 4.665453800480776 26.875339611726776
rtibia 47.09889525748434
rfoot 5.375015944228455 4.078829970828735
rtoes 1.6303682655907346
lowerback 9.179155955649438 2.705066704115243 3.5066040229345203
upperback 0.006328882382621137 3.9848643452256325 0.7741301860464204
thorax -4.966245143368059 1.9022998393410036 -1.3623033808104235
lowerneck -16.493936592064365 -3.1695457128457827 -1.3037548285038558
upperneck 21.960225715327855 -4.131210365398858 0.5552101136976211
head 9.767075466222026 -1.9754026700544427 -0.11786802399336596
lclavicle -1.6117947501433392e-15 1.219625945128494e-15
lhumerus -37.49154950040773 8.588211968582364 80.43707022679428
lradius 18.418985966500838
lwrist -0.36843138349286697
lhand -24.721579266055137 23.455843813031958
lfingers 7.12502
lthumb 1.7805841305182077 53.434326172168156
rclavicle -1.6117947501433392e-15 1.219625945128494e-15
rhumerus -25.589065886467377 -14.188444863069218 -80.50095918044079
rradius 27.7826326223971
rwrist 2.3442670212139114
rhand -18.510236603573553 22.746372362863738
rfingers 7.12502
rthumb 7.777780887964144 -7.0881927524611035
22
root 0.9535898057460555 17.942899596260467 -2.88465403247468 -2.7736991473448427 -5.428731715854807 -1.6141529028065025
lfemur -17.209127652864556 -2.353118847651902 -21.661344174572193
ltibia 25.969901105294543
lfoot -6.124299102022153 -1.6331351051735643
ltoes -1.4959534738053706
rfemur -0.9606416580780337 3.8912585472911916 24.043890678272565
rtibia 57.422103205159516
rfoot 12.461551458645243 2.2428569043556656
rtoes 9.066322691626212
lowerback 9.624907205822865 2.5969953405546824 1.9397788852939286
upperback 0.10207464273821643 3.6731680869632477 0.30433877688660926
thorax -5.1512093183451295 1.7759334885048392 -1.1514000768763917
lowerneck -16.560332517707174 -3.130574940154182 -1.3738059190310654
upperneck 21.87254098101545 -4.086844431577388 0.538911102248675
head 9.735075738853679 -1.9526819711908985 -0.10754402977047134
lclavicle -2.454653580048721e-15 4.436769052463462e-16
lhumerus -37.336700316050816 7.661681695382167 80.90453423679456
lradius 19.112621268646386
lwrist 0.9038718530977703
lhand -25.209766683942508 23.60766612730287
lfingers 7.12502
lthumb 1.3090940106044575 53.585429927093344
rclavicle -2.454653580048721e-15 4.436769052463462e-16
rhumerus -26.2704810811376 -15.388900554131 -80.60787012672586
rradius 26.84534528955605
rwrist 3.2917018025806106
rhand -17.993350318741623 22.22369601104667
rfingers 7.12502
rthumb 8.276618856281528 -7.588868089567383
23
root 0.9792705668342905 17.99671421804873 -2.0913893788878397 -3.2578658300629213 -5.457764601740886 -0.3612031990181619
lfemur -14.149377684497342 -2.2182544443184873 -23.198828761753447
ltibia 27.398954928003995
lfoot -7.733361775418482 0.08560944847007923
ltoes -0.24709847892051773
rfemur -6.406469348061385 3.1018269251825803 22.571711032695212
rtibia 66.1871863326796
rfoot 12.67209890744558 -0.5835881765975683
rtoes 11.87228006668176
lowerback 9.955402342241047 2.4690041103375693 0.8864148471611396
upperback 0.28762626938634317 3.379970658689088 0.1347003102757236
thorax -5.179712192385519 1.6526260585595858 -0.6330034327966508
lowerneck -16.527124178039166 -3.0014584709290912 -1.3531180848258368
upperneck 21.802318828831375 -3.8897064320595134 0.5140762617260233
head 9.709393828948706 -1.8747029608423478 -0.09119582788886946
lclavicle -1.9610267778879378e-15 8.990474150442714e-16
lhumerus -36.20961167163809 7.0938803763951 81.4211290691037
lradius 19.629801322037462
lwrist 2.5212320920018576
lhand -26.26253285145619 22.7492938767856
lfingers 7.12502
lthumb 0.2923337323237395 52.728022173606476
rclavicle -1.9610267778879378e-15 8.990474150442714e-16
rhumerus -26.444505597979582 -16.39386428947246 -80.38724346564042
rradius 25.76215798682678
rwrist 5.048127056078713
rhand -17.584600225635434 22.051573021911512
rfingers 7.12502
rthumb 8.671113197922319 -7.747515048047372
24
root 0.9738307739198429 18.02769559277542 -2.692847915953207 -3.6072440504310426 -5.318280328464688 0.5048002392383504
lfemur -11.947738105922863 -2.459126144445082 -25.03242669251041
ltibia 26.594313319437006
lfoot -9.835794435019594 1.3317083863429813
ltoes 0.6554781676946573
rfemur -12.908257703046035 2.031246809983521 20.964342496849902
rtibia 71.67736172411996
rfoot 7.787828854572609 -3.5880145964836228
rtoes 11.625329594863272
lowerback 10.212234900639352 2.0689693831068743 -0.30609767139468347
upperback 0.42420445051953337 2.7148700389979243 0.022343384339283734
thorax -5.239027496731001 1.3503247807684844 -0.1662454058494206
lowerneck -16.469297009913554 -2.8573198651321445 -1.350347688673145
upperneck 21.730861235787735 -3.6606442956297025 0.3235444234109073
head 9.665685008123832 -1.7886152584367185 -0.11620423843939098
lclavicle -2.4880727771509765e-15 4.145132450268922e-16
lhumerus -35.181580067408326 5.919123600154268 81.85241900999529
lradius 20.086624572004247
lwrist 3.167303482993958
lhand -26.727053971691245 22.644195504951956
lfingers 7.12502
lthumb -0.1563464456466882 52.62080892558981
rclavicle -2.4880727771509765e-15 4.145132450268922e-16
rhumerus -26.817123742606956 -17.714646759263466 -80.33213756544097
rradius 24.66941797638731
rwrist 6.305493971203849
rhand -17.135389123954564 21.94056504824971
rfingers 7.12502
rthumb 9.104629665435684 -7.839725979025755
